<svg width="14.166504" height="28.333374" viewBox="0 0 14.1665 28.3334" fill="none" xmlns="http://www.w3.org/2000/svg" xmlns:xlink="http://www.w3.org/1999/xlink">
	<desc>
			Created with Pixso.
	</desc>
	<defs/>
	<path d="M0 15.8334L0 11.6666L4.1665 11.6666L4.1665 6.54504C4.1665 5.52905 4.40332 4.52686 4.85742 3.61804C5.49121 2.35144 6.51807 1.32434 7.78467 0.69104C8.69336 0.236572 9.6958 0 10.7119 0L14.1665 0L14.1665 5L10.8335 5C9.91309 5 9.1665 5.74622 9.1665 6.66663L9.1665 11.6666L14.1665 11.6666L13.3335 15.8334L10 15.8334L9.1665 15.8334L9.1665 28.3334L4.1665 28.3334L4.1665 16.6666L4.1665 15.8334L0 15.8334Z" fill="#FFFFFF" fill-opacity="1.000000" fill-rule="evenodd"/>
</svg>
