<svg width="40.000000" height="40.000000" viewBox="0 0 40 40" fill="none" xmlns="http://www.w3.org/2000/svg" xmlns:xlink="http://www.w3.org/1999/xlink">
	<desc>
			Created with Pixso.
	</desc>
	<defs>
		<clipPath id="clip1506_4721">
			<rect width="40.000000" height="40.000000" fill="white" fill-opacity="0"/>
		</clipPath>
	</defs>
	<g clip-path="url(#clip1506_4721)">
		<path d="M5 31.8396L5 17.6162L5.99463 17.6162L5.99463 31.8396C5.99463 31.9312 6.06885 32.0054 6.16064 32.0054L33.353 32.0054C33.4448 32.0054 33.519 31.9312 33.519 31.8396L33.519 17.6162L34.5137 17.6162L34.5137 31.8396C34.5137 32.4805 33.9941 33 33.353 33L6.16064 33C5.51953 33 5 32.4805 5 31.8396Z" fill="#FFFFFF" fill-opacity="1.000000" fill-rule="evenodd"/>
		<path d="M5.99756 8.99487L5.99756 14.3003L33.5195 14.3003L33.5195 8.99487L5.99756 8.99487ZM5.66602 8C5.2998 8 5.00293 8.29688 5.00293 8.66309L5.00293 14.6318C5.00293 14.998 5.2998 15.2949 5.66602 15.2949L33.8511 15.2949C34.2178 15.2949 34.5146 14.998 34.5146 14.6318L34.5146 8.66309C34.5146 8.29688 34.2178 8 33.8511 8L5.66602 8Z" fill="#FFFFFF" fill-opacity="1.000000" fill-rule="evenodd"/>
		<path d="M9.31152 18.9426L9.31152 28.365L18.2646 28.365L18.2646 18.9426L9.31152 18.9426ZM8.97998 17.9478C8.61377 17.9478 8.31689 18.2446 8.31689 18.6108L8.31689 28.6965C8.31689 29.063 8.61377 29.3599 8.97998 29.3599L18.5962 29.3599C18.9624 29.3599 19.2593 29.063 19.2593 28.6965L19.2593 18.6108C19.2593 18.2446 18.9624 17.9478 18.5962 17.9478L8.97998 17.9478Z" fill="#FFFFFF" fill-opacity="1.000000" fill-rule="evenodd"/>
		<path d="M9.31152 11.6475C9.31152 12.0139 9.01465 12.3108 8.64844 12.3108C8.28223 12.3108 7.98535 12.0139 7.98535 11.6475C7.98535 11.2812 8.28223 10.9844 8.64844 10.9844C9.01465 10.9844 9.31152 11.2812 9.31152 11.6475Z" fill="#FFFFFF" fill-opacity="1.000000" fill-rule="nonzero"/>
		<path d="M11.9648 11.6475C11.9648 12.0139 11.668 12.3108 11.3018 12.3108C10.9355 12.3108 10.6387 12.0139 10.6387 11.6475C10.6387 11.2812 10.9355 10.9844 11.3018 10.9844C11.668 10.9844 11.9648 11.2812 11.9648 11.6475Z" fill="#FFFFFF" fill-opacity="1.000000" fill-rule="nonzero"/>
		<path d="M14.6172 11.6475C14.6172 12.0139 14.3203 12.3108 13.9541 12.3108C13.5879 12.3108 13.291 12.0139 13.291 11.6475C13.291 11.2812 13.5879 10.9844 13.9541 10.9844C14.3203 10.9844 14.6172 11.2812 14.6172 11.6475Z" fill="#FFFFFF" fill-opacity="1.000000" fill-rule="nonzero"/>
		<path d="M31.5283 18.9426L21.249 18.9426L21.249 17.9478L31.5283 17.9478L31.5283 18.9426Z" fill="#FFFFFF" fill-opacity="1.000000" fill-rule="evenodd"/>
		<path d="M31.5283 22.2585L21.249 22.2585L21.249 21.2637L31.5283 21.2637L31.5283 22.2585Z" fill="#FFFFFF" fill-opacity="1.000000" fill-rule="evenodd"/>
		<path d="M31.5283 25.5745L21.249 25.5745L21.249 24.5796L31.5283 24.5796L31.5283 25.5745Z" fill="#FFFFFF" fill-opacity="1.000000" fill-rule="evenodd"/>
		<path d="M31.5283 28.8904L21.249 28.8904L21.249 27.8955L31.5283 27.8955L31.5283 28.8904Z" fill="#FFFFFF" fill-opacity="1.000000" fill-rule="evenodd"/>
	</g>
</svg>
