<svg width="56.603516" height="75.012817" viewBox="0 0 56.6035 75.0128" fill="none" xmlns="http://www.w3.org/2000/svg" xmlns:xlink="http://www.w3.org/1999/xlink">
	<path d="M31.7183 68.5949L46.2397 43.8709C47.8057 41.2048 45.8823 37.8451 42.79 37.8442L13.7432 37.8362C10.6509 37.8353 8.72852 41.194 10.2949 43.861L24.8198 68.593C26.3662 71.2258 30.1724 71.2268 31.7183 68.5949Z" fill="#08A6CE" fill-opacity="1.000000" fill-rule="evenodd"/>
	<path d="M46.2397 43.8709C47.8057 41.2048 45.8823 37.8451 42.79 37.8442L13.7432 37.8362C10.6509 37.8353 8.72852 41.194 10.2949 43.861L24.8198 68.593C26.3662 71.2258 30.1724 71.2268 31.7183 68.5949L46.2397 43.8709ZM43.6523 42.3509C44.0439 41.6844 43.5635 40.8444 42.79 40.8442L13.7437 40.8362C12.9707 40.836 12.4897 41.6757 12.8813 42.3424L27.4067 67.0744C27.7935 67.7326 28.7446 67.7328 29.1313 67.0749L43.6523 42.3509Z" fill="#08A6CE" fill-opacity="1.000000" fill-rule="evenodd"/>
	<path d="M31.6265 49.3286L49.1172 20.2552C50.7114 17.6053 48.8242 14.2261 45.7319 14.1934L11.3682 13.8306C8.27588 13.798 6.31738 17.1367 7.85547 19.8196L24.7285 49.2557C26.2466 51.9042 30.0527 51.9445 31.6265 49.3286Z" fill="#1222B0" fill-opacity="1.000000" fill-rule="evenodd"/>
	<path d="M49.1172 20.2552C50.7114 17.6053 48.8242 14.2261 45.7319 14.1934L11.3682 13.8306C8.27588 13.798 6.31738 17.1367 7.85547 19.8196L24.7285 49.2557C26.2466 51.9042 30.0527 51.9445 31.6265 49.3286L49.1172 20.2552ZM43.9321 19.1747L13.062 18.8488L28.2197 45.2921L43.9321 19.1747Z" fill="#1222B0" fill-opacity="1.000000" fill-rule="evenodd"/>
</svg>
