<svg width="40.000000" height="40.000000" viewBox="0 0 40 40" fill="none" xmlns="http://www.w3.org/2000/svg" xmlns:xlink="http://www.w3.org/1999/xlink">
	<desc>
			Created with Pixso.
	</desc>
	<defs>
		<clipPath id="clip1506_4738">
			<rect width="40.000000" height="40.000000" fill="white" fill-opacity="0"/>
		</clipPath>
	</defs>
	<g clip-path="url(#clip1506_4738)">
		<path d="M20.1299 22.2488L19.8892 19.9628L17.624 19.9196C17.2974 20.5699 16.7783 21.6687 16.4438 22.6874C16.2725 23.209 16.1685 23.6547 16.1445 23.9827C16.1411 24.0334 16.1396 24.0767 16.1396 24.1129C16.1753 24.1096 16.2178 24.1044 16.2681 24.0962C16.5879 24.0436 17.0166 23.8998 17.5142 23.6816C18.4854 23.2555 19.519 22.6356 20.1299 22.2488ZM20.7866 18.9679L17.6289 18.9076C17.2598 18.9005 16.918 19.0991 16.75 19.4329C16.085 20.7526 14.5254 24.1071 15.4058 24.9258C16.2856 25.7441 19.4438 23.8781 20.6826 23.0914C20.9961 22.8923 21.1616 22.5289 21.1221 22.1555L20.7866 18.9679Z" fill="#F5F8FA" fill-opacity="1.000000" fill-rule="evenodd"/>
		<path d="M32.23 6.26428C31.9595 6.01257 31.5391 6.03125 31.2915 6.30591C31.0439 6.58069 31.062 7.00732 31.333 7.25903C31.6035 7.51062 32.0234 7.49207 32.2715 7.21729C32.519 6.94263 32.501 6.51587 32.23 6.26428ZM32.9033 5.51819C32.2266 4.88904 31.1763 4.93567 30.5566 5.62244C29.937 6.3092 29.9834 7.37585 30.6597 8.00513C31.3364 8.63428 32.3867 8.58752 33.0063 7.90088C33.626 7.21411 33.5796 6.14734 32.9033 5.51819Z" fill="#F5F8FA" fill-opacity="1.000000" fill-rule="evenodd"/>
		<path d="M20.9297 22.2887C20.5581 22.7008 19.9277 22.7288 19.522 22.3513L17.562 20.5286C17.1562 20.151 17.1284 19.511 17.5 19.0989L28.8745 6.48914C29.2461 6.07715 29.8765 6.04907 30.2827 6.42664L32.2422 8.24939C32.6484 8.62683 32.6763 9.26685 32.3042 9.67896L20.9297 22.2887Z" fill="#343636" fill-opacity="1.000000" fill-rule="nonzero"/>
		<path d="M18.2349 19.7825L20.1948 21.6052L31.5693 8.99536L29.6094 7.17261L18.2349 19.7825ZM19.522 22.3513C19.9277 22.7288 20.5581 22.7008 20.9297 22.2887L32.3042 9.67896C32.6763 9.26685 32.6484 8.62683 32.2422 8.24939L30.2827 6.42664C29.8765 6.04907 29.2461 6.07715 28.8745 6.48914L17.5 19.0989C17.1284 19.511 17.1562 20.151 17.562 20.5286L19.522 22.3513Z" fill="#F5F8FA" fill-opacity="1.000000" fill-rule="evenodd"/>
		<path d="M22.4014 18.1597C22.1533 18.4343 21.7334 18.453 21.4629 18.2013C21.1919 17.9496 21.1733 17.5229 21.4214 17.2483L23.2158 15.2588C23.4639 14.984 23.8838 14.9653 24.1548 15.217C24.4253 15.4688 24.4438 15.8954 24.1958 16.1702L22.4014 18.1597Z" fill="#F5F8FA" fill-opacity="1.000000" fill-rule="nonzero"/>
		<path d="M15.4263 25.3925C15.3027 25.5298 15.0923 25.5391 14.957 25.4133C14.8218 25.2875 14.8125 25.0741 14.9365 24.9368L15.3853 24.4393C15.5093 24.302 15.7192 24.2927 15.8545 24.4186C15.9897 24.5443 15.999 24.7577 15.875 24.895L15.4263 25.3925Z" fill="#F5F8FA" fill-opacity="1.000000" fill-rule="nonzero"/>
		<path d="M4.04395 8.11572L4.28418 34.9792L25.2104 34.7921L25.0698 19.0814L26.0566 17.9874L26.207 34.7832C26.2119 35.342 25.7695 35.7991 25.2192 35.804L4.29346 35.9911C3.74316 35.996 3.29297 35.547 3.2876 34.9882L3.04736 8.12463C3.04248 7.5658 3.48486 7.10889 4.03516 7.10388L24.9609 6.91675C25.5112 6.91187 25.9614 7.36084 25.9668 7.91968L25.9688 8.14661L24.9819 9.2406L24.9702 7.92859L4.04395 8.11572ZM23.3325 10.5264L23.3374 11.0637L22.3506 12.1577L22.3359 10.5353L6.72461 10.6749L6.87207 27.1984L22.4839 27.0587L22.4385 21.9985L23.4253 20.9047L23.48 27.0498L23.4893 28.0616L22.4927 28.0706L6.88135 28.2102L5.88477 28.2191L5.87549 27.2073L5.72803 10.6838L5.71875 9.672L6.71533 9.66309L22.3267 9.52356L23.3232 9.51465L23.3325 10.5264ZM14.5361 29.8282C15.4531 29.8199 16.2036 30.5684 16.2119 31.4996C16.2202 32.431 15.4834 33.1926 14.5659 33.2008C13.6489 33.2091 12.8984 32.4607 12.8901 31.5294C12.8818 30.598 13.6187 29.8364 14.5361 29.8282ZM14.5269 28.8164C15.9946 28.8032 17.1948 30.0006 17.2085 31.4907C17.2217 32.981 16.043 34.1996 14.5752 34.2126C13.1074 34.2258 11.9072 33.0284 11.894 31.5383C11.8804 30.0481 13.0596 28.8295 14.5269 28.8164Z" fill="#F5F8FA" fill-opacity="1.000000" fill-rule="evenodd"/>
	</g>
</svg>
