<svg width="23.000000" height="14.000000" viewBox="0 0 23 14" fill="none" xmlns="http://www.w3.org/2000/svg" xmlns:xlink="http://www.w3.org/1999/xlink">
	<desc>
			Created with Pixso.
	</desc>
	<defs/>
	<path d="M22.7861 12.5616C22.7861 12.4657 22.6948 12.4657 22.6948 12.3699C22.3286 11.6028 21.5054 10.6438 20.4072 9.58899C19.8579 9.10962 19.5835 8.72607 19.4004 8.5343C19.126 8.15063 19.126 7.86304 19.2173 7.47949C19.3091 7.19177 19.6748 6.71228 20.3154 5.84937C20.6816 5.36987 20.8647 5.08215 21.1392 4.79456C22.5117 2.87671 23.1523 1.63013 22.9692 1.05481L22.8779 0.958862C22.7861 0.863037 22.6948 0.76709 22.5117 0.76709C22.3286 0.671265 22.0542 0.671265 21.7798 0.76709L18.3022 0.76709C18.2109 0.76709 18.2109 0.76709 18.0278 0.76709C17.936 0.76709 17.8447 0.76709 17.8447 0.76709L17.7534 0.76709L17.6616 0.76709L17.5703 0.863037C17.4785 0.958862 17.4785 0.958862 17.4785 1.05481C17.1128 2.10962 16.6553 2.97266 16.1978 3.93152C15.9229 4.41101 15.6484 4.89038 15.374 5.27393C15.0996 5.65759 14.9165 5.94519 14.7334 6.13696C14.5503 6.32874 14.3672 6.42468 14.2759 6.61646C14.1841 6.71228 14.0015 6.80823 14.0015 6.71228C13.9097 6.71228 13.8184 6.71228 13.8184 6.61646C13.7266 6.52051 13.6353 6.42468 13.5435 6.32874C13.4521 6.23291 13.4521 6.04114 13.3608 5.84937C13.3608 5.65747 13.3608 5.4657 13.3608 5.36987C13.3608 5.27393 13.3608 4.98633 13.3608 4.79456C13.3608 4.50684 13.3608 4.31506 13.3608 4.21912C13.3608 3.93152 13.3608 3.54797 13.3608 3.16443C13.3608 2.78088 13.3608 2.49316 13.3608 2.30139C13.3608 2.10962 13.3608 1.8219 13.3608 1.63013C13.3608 1.34241 13.3608 1.15063 13.3608 1.05481C13.3608 0.958862 13.269 0.76709 13.269 0.671265C13.1777 0.575317 13.0859 0.479492 12.9946 0.383545C12.9033 0.28772 12.7202 0.28772 12.6284 0.191772C12.1709 0.0959473 11.6221 0 10.9814 0C9.51709 0 8.51074 0.0959473 8.14453 0.28772C7.96143 0.383545 7.77832 0.479492 7.68701 0.671265C7.50391 0.863037 7.50391 0.958862 7.59521 0.958862C8.05322 1.05481 8.41895 1.24658 8.60205 1.53418L8.69336 1.72607C8.78516 1.8219 8.78516 2.01367 8.87646 2.30139C8.96826 2.58899 8.96826 2.87671 8.96826 3.26025C8.96826 3.83557 8.96826 4.41101 8.96826 4.79456C8.96826 5.27393 8.87646 5.56165 8.87646 5.84937C8.87646 6.13696 8.78516 6.32874 8.69336 6.42468C8.60205 6.61646 8.60205 6.71228 8.51074 6.71228C8.51074 6.71228 8.51074 6.80823 8.41895 6.80823C8.32764 6.80823 8.23584 6.90405 8.05322 6.90405C7.96143 6.90405 7.77832 6.80823 7.68701 6.71228C7.50391 6.61646 7.3208 6.42468 7.22949 6.23291C7.04639 6.04114 6.86328 5.75342 6.68018 5.36987C6.49756 4.98633 6.22266 4.60278 6.03955 4.02734L5.85693 3.6438C5.76514 3.45203 5.58203 3.06848 5.39941 2.58899C5.21631 2.10962 5.0332 1.72607 4.8501 1.24658C4.75879 1.05481 4.66699 0.958862 4.57568 0.863037L4.48389 0.863037C4.48389 0.863037 4.39258 0.76709 4.30127 0.76709C4.20947 0.76709 4.11816 0.671265 4.02637 0.671265L0.731934 0.671265C0.366211 0.671265 0.183105 0.76709 0.0913086 0.863037L0 0.958862C0 0.958862 0 1.05481 0 1.15063C0 1.24658 0 1.34241 0.0913086 1.53418C0.549316 2.68494 1.09814 3.83557 1.64697 4.98633C2.19629 6.04114 2.74512 7 3.11133 7.67126C3.56885 8.34253 3.93506 9.01367 4.39258 9.58899C4.8501 10.1644 5.12451 10.548 5.21631 10.7397C5.39941 10.9315 5.49072 11.0273 5.58203 11.1233L5.85693 11.411C6.03955 11.6028 6.31445 11.8904 6.68018 12.1781C7.04639 12.4657 7.50391 12.7534 7.96143 13.0411C8.41895 13.3287 8.96826 13.5205 9.51709 13.7123C10.1577 13.9042 10.707 14 11.2559 13.9042L12.6284 13.9042C12.9033 13.9042 13.0859 13.8082 13.269 13.6165L13.3608 13.5205C13.3608 13.4247 13.4521 13.4247 13.4521 13.3287C13.4521 13.2329 13.4521 13.137 13.4521 12.9452C13.4521 12.5616 13.4521 12.2739 13.5435 11.9863C13.6353 11.6986 13.6353 11.5068 13.7266 11.3151C13.8184 11.1233 13.9097 11.0273 14.0015 10.9315C14.0928 10.8356 14.1841 10.7397 14.1841 10.7397L14.2759 10.7397C14.459 10.6438 14.7334 10.7397 14.9165 10.9315C15.1909 11.1233 15.4653 11.411 15.6484 11.6986C15.8315 11.9863 16.106 12.2739 16.4722 12.6576C16.8379 13.0411 17.1128 13.3287 17.2959 13.4247L17.5703 13.6165C17.7534 13.7123 17.936 13.8082 18.2109 13.9042C18.4854 14 18.6685 14 18.8516 14L21.9629 13.9042C22.2373 13.9042 22.5117 13.8082 22.6948 13.7123C22.8779 13.6165 22.9692 13.5205 22.9692 13.3287C22.9692 13.2329 22.9692 13.0411 22.9692 12.9452C22.7861 12.7534 22.7861 12.6576 22.7861 12.5616Z" fill="#FFFFFF" fill-opacity="1.000000" fill-rule="nonzero"/>
</svg>
