<svg width="40.000000" height="40.000000" viewBox="0 0 40 40" fill="none" xmlns="http://www.w3.org/2000/svg" xmlns:xlink="http://www.w3.org/1999/xlink">
	<desc>
			Created with Pixso.
	</desc>
	<defs>
		<clipPath id="clip1506_4704">
			<rect width="40.000000" height="40.000000" fill="white" fill-opacity="0"/>
		</clipPath>
	</defs>
	<g clip-path="url(#clip1506_4704)">
		<path d="M5 31.8363L5 17.6149L5.99463 17.6149L5.99463 31.8363C5.99463 31.9279 6.06885 32.0021 6.16064 32.0021L33.3496 32.0021C33.4409 32.0021 33.5151 31.9279 33.5151 31.8363L33.5151 17.6149L34.5098 17.6149L34.5098 31.8363C34.5098 32.4772 33.9902 32.9967 33.3496 32.9967L6.16064 32.9967C5.51953 32.9967 5 32.4772 5 31.8363Z" fill="#F5F8FA" fill-opacity="1.000000" fill-rule="evenodd"/>
		<path d="M5.99707 8.99463L5.99707 14.2994L33.5156 14.2994L33.5156 8.99463L5.99707 8.99463ZM5.66553 8C5.29932 8 5.00244 8.29688 5.00244 8.66309L5.00244 14.631C5.00244 14.9972 5.29932 15.2941 5.66553 15.2941L33.8472 15.2941C34.2134 15.2941 34.5103 14.9972 34.5103 14.631L34.5103 8.66309C34.5103 8.29688 34.2134 8 33.8472 8L5.66553 8Z" fill="#F5F8FA" fill-opacity="1.000000" fill-rule="evenodd"/>
		<path d="M9.31152 11.647C9.31152 12.0132 9.01465 12.3101 8.64844 12.3101C8.28223 12.3101 7.98535 12.0132 7.98535 11.647C7.98535 11.2808 8.28223 10.9839 8.64844 10.9839C9.01465 10.9839 9.31152 11.2808 9.31152 11.647Z" fill="#F5F8FA" fill-opacity="1.000000" fill-rule="nonzero"/>
		<path d="M11.9639 11.647C11.9639 12.0132 11.667 12.3101 11.3008 12.3101C10.9346 12.3101 10.6377 12.0132 10.6377 11.647C10.6377 11.2808 10.9346 10.9839 11.3008 10.9839C11.667 10.9839 11.9639 11.2808 11.9639 11.647Z" fill="#F5F8FA" fill-opacity="1.000000" fill-rule="nonzero"/>
		<path d="M14.6162 11.647C14.6162 12.0132 14.3193 12.3101 13.9531 12.3101C13.5869 12.3101 13.29 12.0132 13.29 11.647C13.29 11.2808 13.5869 10.9839 13.9531 10.9839C14.3193 10.9839 14.6162 11.2808 14.6162 11.647Z" fill="#F5F8FA" fill-opacity="1.000000" fill-rule="nonzero"/>
		<path d="M18.1978 27.135L19.9873 18.4437L20.9614 18.6443L19.1719 27.3356L18.1978 27.135Z" fill="#F5F8FA" fill-opacity="1.000000" fill-rule="evenodd"/>
		<path d="M14.1509 22.1663L16.7021 19.929L17.3579 20.6768L14.9487 22.7894L17.3579 24.902L16.7021 25.6498L14.1509 23.4125C13.7744 23.0824 13.7744 22.4963 14.1509 22.1663Z" fill="#F5F8FA" fill-opacity="1.000000" fill-rule="evenodd"/>
		<path d="M25.3599 22.1663L22.8086 19.929L22.1528 20.6768L24.562 22.7894L22.1528 24.902L22.8086 25.6498L25.3599 23.4125C25.7363 23.0824 25.7363 22.4963 25.3599 22.1663Z" fill="#F5F8FA" fill-opacity="1.000000" fill-rule="evenodd"/>
	</g>
</svg>
