<svg width="22.000000" height="16.000000" viewBox="0 0 22 16" fill="none" xmlns="http://www.w3.org/2000/svg" xmlns:xlink="http://www.w3.org/1999/xlink">
	<desc>
			Created with Pixso.
	</desc>
	<defs/>
	<path d="M22 6.14136C22 5.65662 21.9199 5.09094 21.9199 4.44446C21.8394 3.79797 21.7593 3.15149 21.6787 2.58582C21.5181 1.93933 21.2773 1.45459 20.7954 1.05054C20.394 0.646484 19.832 0.404053 19.27 0.323242C17.4233 0.0808105 14.6934 0 11 0C7.30664 0 4.49658 0.0808105 2.72998 0.323242C2.16797 0.404053 1.60596 0.646484 1.20459 1.05054C0.802734 1.45459 0.481934 1.93933 0.321289 2.58582C0.160645 3.15149 0.0800781 3.71716 0.0800781 4.44446C0 5.09094 0 5.65662 0 6.14136C0 6.62622 0 7.19189 0 8C0 8.80811 0 9.45459 0 9.85864C0 10.3434 0.0800781 10.9091 0.0800781 11.5555C0.160645 12.202 0.240723 12.8485 0.321289 13.4142C0.481934 14.0605 0.722656 14.5454 1.20459 14.9495C1.60596 15.3535 2.16797 15.5959 2.72998 15.6768C4.57666 15.9192 7.30664 16 11 16C14.6934 16 17.5034 15.9192 19.27 15.6768C19.832 15.5959 20.394 15.3535 20.7954 14.9495C21.1973 14.5454 21.5181 14.0605 21.6787 13.4142C21.8394 12.8485 21.9199 12.2828 21.9199 11.5555C22 10.9091 22 10.3434 22 9.85864C22 9.37378 22 8.80811 22 8C22 7.19189 22 6.54541 22 6.14136ZM15.2554 8.64648L8.9126 12.6061C8.83203 12.6869 8.67139 12.7677 8.51074 12.7677C8.35059 12.7677 8.27002 12.7677 8.10938 12.6869C7.86865 12.5253 7.70801 12.2828 7.70801 11.9596L7.70801 3.95959C7.70801 3.63635 7.86865 3.39392 8.10938 3.2323C8.35059 3.07068 8.67139 3.07068 8.9126 3.2323L15.2554 7.19189C15.4966 7.35352 15.6567 7.59595 15.6567 7.83838C15.6567 8.08081 15.4966 8.48486 15.2554 8.64648Z" fill="#FFFFFF" fill-opacity="1.000000" fill-rule="nonzero"/>
</svg>
